<svg xmlns="http://www.w3.org/2000/svg" xmlns:xlink="http://www.w3.org/1999/xlink" width="607.595" height="562.909" viewBox="0 0 607.595 562.909"><defs><linearGradient id="a" x1="0.5" x2="0.5" y2="1" gradientUnits="objectBoundingBox"><stop offset="0" stop-color="#0cb9a2"/><stop offset="1" stop-color="#0fecd2"/></linearGradient></defs><path d="M674.922,284.654a8.4,8.4,0,1,1-2.46-5.982,8.4,8.4,0,0,1,2.46,5.982Z" transform="translate(-268.082 -134.796)" fill="url(#a)"/><path d="M427.2,69.2m-15.878,0A15.878,15.878,0,1,0,427.2,53.321,15.878,15.878,0,0,0,411.32,69.2Z" transform="translate(-170.696 -46.847)" fill="url(#a)"/><path d="M416.228,161.779a14.3,14.3,0,1,1-14.26-14.26,14.3,14.3,0,0,1,14.26,14.26ZM620.5,64.936a22.264,22.264,0,1,1-6.505-15.772A22.264,22.264,0,0,1,620.5,64.936Zm-91.069,55.027a8.442,8.442,0,1,1-8.4-8.4,8.442,8.442,0,0,1,8.4,8.4Z" transform="translate(-161.344 -42.628)" fill="url(#a)"/><path d="M352.8,649.469A249.326,249.326,0,0,1,149.138,255.4L165.5,267a231.217,231.217,0,0,0-24.32,43.435C91.994,427.342,146.8,562,263.653,611.327A229.484,229.484,0,0,0,543.16,271.37l16.665-11.242A249.588,249.588,0,0,1,352.8,649.426Z" transform="translate(-48.967 -126.586)" fill="url(#a)"/><path d="M397.489,526.424s16.359,27.513,6.692,44.179-41.642,16.184-41.642,16.184-16.316-27.513-6.692-44.179S397.489,526.424,397.489,526.424Zm59.751,83.152s-13.866-30.969-37.18-35.212-47.241,19.684-47.241,19.684S386.684,624.974,410,629.26s47.241-19.684,47.241-19.684ZM471.5,467.2s27.907,15.659,27.907,34.993-27.994,34.993-27.994,34.993-27.907-15.659-27.863-34.993S471.5,467.2,471.5,467.2Zm97.587,41.161s-27.47-19.859-49.734-11.941-31.1,40.679-31.1,40.679,27.47,19.9,49.778,11.941S569.086,508.359,569.086,508.359ZM506.229,383.084s31.975-.394,41.6,16.316-6.867,44.135-6.867,44.135-31.975.394-41.554-16.316S506.229,383.084,506.229,383.084ZM615.583,364.8s-33.725-3.456-49.122,14.566S559.9,430.15,559.9,430.15s33.681,3.5,49.078-14.566S615.583,364.8,615.583,364.8ZM492.014,289.434s27.338-16.316,44.179-6.517S552.333,324.6,552.333,324.6s-27.513,16.272-44.179,6.6S492.014,289.434,492.014,289.434ZM583.783,217.3s-30.925,13.822-35.255,37.136,19.684,47.241,19.684,47.241,30.925-13.822,35.255-37.093S583.783,217.3,583.783,217.3Zm-83.327-71.473s-19.9,27.426-11.985,49.778,40.679,31.144,40.679,31.144,19.9-27.47,11.985-49.778-40.679-31.144-40.679-31.144ZM250.868,526.424s-16.316,27.513-6.692,44.179,41.642,16.184,41.642,16.184,16.359-27.513,6.692-44.179S250.868,526.424,250.868,526.424Zm-59.926,83.152s13.822-30.969,37.136-35.212,47.241,19.684,47.241,19.684S261.5,624.974,238.183,629.26,190.942,609.577,190.942,609.577ZM176.857,467.2s-27.907,15.659-27.863,34.993,27.951,34.993,27.951,34.993,27.907-15.659,27.863-34.993S176.857,467.2,176.857,467.2ZM79.1,508.359s27.426-19.859,49.778-11.941S159.93,537.1,159.93,537.1,132.5,557,110.152,549.039,79.1,508.359,79.1,508.359Zm63.031-125.275s-32.019-.394-41.6,16.316,6.824,44.135,6.824,44.135,31.975.394,41.6-16.316S142.127,383.084,142.127,383.084ZM32.774,364.8s33.725-3.456,49.078,14.566,6.6,50.784,6.6,50.784-33.725,3.5-49.078-14.566-6.6-50.784-6.6-50.784ZM156.3,289.434s-27.688-16.316-44.354-6.517S95.8,324.6,95.8,324.6s27.557,16.272,44.179,6.6S156.3,289.434,156.3,289.434ZM64.442,217.3s30.969,13.822,35.3,37.136-19.684,47.241-19.684,47.241S49.133,287.859,44.8,264.589,64.442,217.3,64.442,217.3Zm92.6-87.833s19.9,27.426,11.985,49.734-40.636,31.144-40.636,31.144-19.9-27.426-11.985-49.909,40.636-30.969,40.636-30.969Z" transform="translate(-20.348 -76.895)" fill="url(#a)"/><path d="M566.752,849.065H560.41l-2.843-4.855c-2.012-3.324-19.027-33.156-6.78-54.327s46.891-21.171,50.477-21.215h5.643l2.843,4.855c2.012,3.324,19.027,33.156,6.78,54.327C604.895,848.059,573.007,849.065,566.752,849.065Zm28.432-60.232c-9.492.831-22.92,3.893-26.988,10.892s0,20.252,3.937,28.869c9.492-.875,22.92-3.893,26.988-10.935S599.165,797.581,595.184,788.833Z" transform="translate(-223.992 -329.112)" fill="url(#a)"/><path d="M631.031,922.894a39.367,39.367,0,0,1-7.436-.656c-28.169-5.161-43.741-39.367-44.529-40.986l-2.8-6.3,4.855-4.9c1.137-1.137,28.082-27.6,56.208-22.483s43.741,39.367,44.529,40.986l2.8,6.3-4.855,4.9C678.752,900.761,656.357,922.894,631.031,922.894ZM600.893,879.5c5.293,8.748,14.916,20.908,26.245,22.964s24.714-5.818,32.806-12.116C654.651,881.6,644.984,869.4,633.7,867.3,621.539,865.112,608.2,873.772,600.893,879.5Z" transform="translate(-235.781 -359.987)" fill="url(#a)"/><path d="M733.908,760.946l-4.943-2.756c-3.368-1.881-33.025-19.246-32.981-43.741s29.744-41.685,33.156-43.741l4.9-2.756,4.9,2.756c3.368,1.881,33.025,19.246,32.981,43.741s-29.744,41.685-33.112,43.741Zm0-69.33c-7.786,5.468-17.89,14.785-17.89,22.92s10.061,17.5,17.8,23.008c7.786-5.511,17.934-14.828,17.934-22.964s-9.8-17.5-17.584-22.964Z" transform="translate(-283.02 -289.371)" fill="url(#a)"/><path d="M817.682,792.362c-22.4,0-43.3-14.916-44.354-15.7l-5.6-4.024,1.75-6.692c.437-1.531,10.454-37.968,37.443-47.547s57.739,12.335,59.007,13.122l5.6,4.068-1.75,6.649c-.437,1.575-10.41,37.967-37.443,47.591A43.74,43.74,0,0,1,817.682,792.362Zm-26.245-28.126c8.748,4.943,23.358,10.673,34.337,6.78s18.546-17.5,22.352-26.945c-8.748-4.9-23.314-10.629-34.293-6.736s-18.721,17.584-22.57,26.9Z" transform="translate(-311.329 -308.321)" fill="url(#a)"/><path d="M837.514,612.244c-5.818,0-38.142-.962-49.865-21.39-12.2-21.171,4.9-50.959,6.911-54.283l2.887-4.812h5.6c4.155,0,38.274.219,50.434,21.346s-4.943,51-6.911,54.327l-2.887,4.812h-6.167Zm-28.388-60.188c-4.024,8.748-8.136,21.871-4.068,28.782s17.5,10.148,26.945,11.023c4.024-8.748,8.092-21.871,4.068-28.826s-17.5-10.017-26.945-10.892Z" transform="translate(-317.47 -235.632)" fill="url(#a)"/><path d="M903.223,587.052c-4.374,0-7.217-.262-7.655-.306l-6.867-.7-1.837-6.649c-.394-1.531-9.929-38.1,8.748-59.882s56.12-18.2,57.739-18.021l6.911.7,1.793,6.692c.394,1.531,9.929,38.1-8.748,59.882-13.691,16.1-37.793,18.284-50.084,18.284Zm40.723-65.612c-10.235,0-25.589,2.45-33.112,11.285s-7.3,24.364-5.905,34.512c10.235-.219,25.589-2.493,33.112-11.329S945.214,530.451,943.946,521.44Z" transform="translate(-357.241 -223.562)" fill="url(#a)"/><path d="M815.279,435.545a34.993,34.993,0,0,1-17.759-4.374c-21.127-12.291-21.214-46.628-21.127-50.521v-5.6l4.812-2.843c3.324-2.012,33.2-18.984,54.327-6.692s21.215,46.628,21.171,50.477v5.643l-4.812,2.843A80.834,80.834,0,0,1,815.279,435.545Zm-18.546-48.772c.831,9.4,3.893,22.964,10.892,26.9s20.165,0,28.826-3.937c-.831-9.186-3.893-22.789-10.892-26.682s-20.208,0-28.826,3.762Z" transform="translate(-314.744 -168.286)" fill="url(#a)"/><path d="M896.86,363.217l-4.9-4.9c-1.137-1.137-27.645-28.038-22.439-56.208s39.586-43.741,41.073-44.485l6.3-2.8,4.9,4.9c1.137,1.094,27.6,27.994,22.4,56.164s-39.367,43.741-41.029,44.485Zm15.484-83.808c-8.748,5.293-20.952,14.916-23.052,26.245s5.818,24.758,12.116,32.85c8.748-5.293,20.908-14.916,23.052-26.245S918.643,287.5,912.345,279.409Z" transform="translate(-351.228 -126.358)" fill="url(#a)"/><path d="M824.118,241.421l-6.692-1.837c-1.531-.394-37.967-10.454-47.5-37.443S782.3,144.4,783.045,143.091l4.068-5.6,6.693,1.793c1.531.437,37.924,10.454,47.5,37.486s-12.379,57.739-13.122,59.051Zm-28.476-80.353c-4.943,8.748-10.673,23.4-6.78,34.337s17.5,18.546,26.9,22.4c4.943-8.748,10.673-23.358,6.78-34.337s-17.409-18.546-26.9-22.4Z" transform="translate(-311.248 -80.06)" fill="url(#a)"/><path d="M416.122,849.065c-6.211,0-38.055-1.006-49.778-21.215-12.2-21.127,4.768-51,6.78-54.327l2.843-4.855h5.643c3.631,0,38.23,0,50.477,21.215s-4.943,50.915-6.736,54.239l-2.887,4.855h-5.643Zm-28.344-60.232c-3.98,8.748-8.048,21.871-3.98,28.826s17.5,10.1,26.988,10.935c3.98-8.748,8-21.871,3.937-28.869S397.226,789.8,387.778,788.833Z" transform="translate(-151.222 -329.112)" fill="url(#a)"/><path d="M329.405,922.887c-25.283,0-47.678-22.133-48.728-23.139l-4.9-4.9,2.843-6.3c.656-1.487,16.359-35.824,44.529-40.986s55.027,21.346,56.164,22.483l5.074,4.9-2.843,6.3c-.656,1.443-16.315,35.824-44.529,40.986a39.382,39.382,0,0,1-7.611.656Zm-28.957-32.543c8.048,6.3,21.477,14.26,32.762,12.116,12.073-2.187,21.521-15.047,26.245-23.052-8.048-6.255-21.433-14.172-32.762-12.116C314.708,869.523,305.26,882.383,300.449,890.344Z" transform="translate(-117.213 -359.981)" fill="url(#a)"/><path d="M247.8,760.946l-4.943-2.756c-3.368-1.881-33.068-19.115-33.112-43.741s29.613-41.817,32.981-43.741l4.943-2.756,4.9,2.756c3.368,1.881,33.068,19.115,33.112,43.741S256.064,756.265,252.7,758.19Zm0-69.374c-7.786,5.511-17.89,14.916-17.89,23.008s10.1,17.5,17.89,22.964c7.786-5.511,17.89-14.872,17.89-23.008s-10.192-17.5-17.978-22.964Z" transform="translate(-91.156 -289.371)" fill="url(#a)"/><path d="M145.5,792.4a44.044,44.044,0,0,1-14.7-2.406c-26.988-9.623-37.005-46.016-37.4-47.547l-1.793-6.692,5.6-4.068c1.312-.919,32.062-22.877,59.051-13.122s37.005,46.016,37.4,47.547l1.793,6.692-5.6,4.024C188.981,777.484,168.029,792.4,145.5,792.4ZM115.19,744.284c3.849,9.492,11.416,23.052,22.352,26.945,11.591,4.112,26.245-2.318,34.337-6.824-3.674-9.448-11.242-23.183-22-26.945s-25.545,1.75-34.512,6.649Z" transform="translate(-44.544 -308.358)" fill="url(#a)"/><path d="M145.072,612.243H138.9l-2.887-4.812c-1.968-3.324-19.071-33.112-6.911-54.327s46.147-21.389,50.39-21.346h5.643l2.887,4.812c1.968,3.324,19.071,33.112,6.911,54.327C183.214,611.368,150.845,612.243,145.072,612.243ZM173.5,552.054c-9.492.875-22.92,3.937-26.988,10.979s0,20.208,4.024,28.826c9.492-.875,22.92-3.937,26.988-10.979s0-20.165-4.024-28.738Z" transform="translate(-57.63 -235.63)" fill="url(#a)"/><path d="M75.458,587.1c-12.291,0-36.393-2.231-50.128-18.328-18.59-21.871-9.054-58.351-8.748-59.882l2.012-6.649,6.867-.7c1.618,0,39.367-3.806,57.782,18.021s9.054,58.351,8.748,59.882L90.2,586.134l-6.911.7C82.588,587.1,79.832,587.1,75.458,587.1ZM34.6,521.485c-1.4,10.1-1.618,25.632,5.905,34.468s22.92,11.11,33.156,11.329c1.4-10.148,1.618-25.676-5.949-34.512S44.839,521.485,34.6,521.485Z" transform="translate(-13.867 -223.606)" fill="url(#a)"/><path d="M163.526,435.558a80.834,80.834,0,0,1-36.611-11.066l-4.812-2.843v-5.643c0-3.849,0-38.23,21.127-50.477s51,4.68,54.37,6.692l4.812,2.843v5.6c0,3.893,0,38.23-21.127,50.521A34.993,34.993,0,0,1,163.526,435.558Zm-21.215-25.72c8.748,3.98,21.871,8,28.869,3.937s10.061-17.5,10.892-26.988c-8.748-3.98-21.871-8.048-28.826-3.937s-10.1,17.715-10.935,27.032Z" transform="translate(-56.575 -168.298)" fill="url(#a)"/><path d="M84.718,362.884l-6.342-2.8c-1.443-.656-35.824-16.315-41.029-44.485s21.3-55.07,22.439-56.164l4.9-4.9,6.3,2.8c1.487.656,35.824,16.316,41.029,44.485s-21.3,55.07-22.439,56.208Zm-15.484-83.59c-6.3,8.092-14.216,21.433-12.116,32.85s15.091,21.521,23.052,26.245c6.3-8.048,14.216-21.389,12.116-32.806s-14.3-21-23.052-26.289Z" transform="translate(-22.864 -126.244)" fill="url(#a)"/><path d="M172.7,214.067l-4.068-5.6c-.919-1.312-22.877-32.019-13.341-59.051s45.972-37.049,47.547-37.443l6.649-1.793,3.937,5.774c.919,1.269,22.877,32.019,13.122,59.007S180.577,212.011,179,212.449Zm28.388-80.309c-9.536,4.024-22.964,11.635-27.032,22.571s1.881,25.37,6.824,34.337c9.492-3.849,23.008-11.46,26.9-22.4,4.243-11.591-2.187-26.2-6.692-34.337Z" transform="translate(-68.727 -69.283)" fill="url(#a)"/><path d="M537.527,473.674H304.036L275.3,344.2a3.237,3.237,0,0,1,4.9-3.412l70.467,46.453,68.149-49.384a3.28,3.28,0,0,1,3.893,0l61.675,49.3,77.16-46.891a3.193,3.193,0,0,1,4.812,3.456Z" transform="translate(-116.995 -158.868)" fill="url(#a)"/><path d="M538.883,477.3H289.295L258.676,339.954a13.122,13.122,0,0,1,20.252-14l64.606,42.6,62.681-45.1a13.122,13.122,0,0,1,16.053.394l56.164,44.7,71.211-43.216A13.292,13.292,0,0,1,569.5,339.561ZM305.435,457.181H522.786L546.406,350.8l-69.549,42.21-63.075-50.39-69.549,50.39-62.156-40.986Z" transform="translate(-110.302 -152.435)" fill="url(#a)"/><path d="M312.481,595.413H558.57V615.49H312.481Z" transform="translate(-131.696 -260.748)" fill="url(#a)"/><path d="M315.949,651.84H562.038v20.077H315.949Z" transform="translate(-133.064 -283.013)" fill="url(#a)"/><path d="M354.726,497.976l12.869-12.86,14.194,14.2-12.873,12.86Z" transform="translate(-148.365 -217.226)" fill="url(#a)"/><path d="M425.762,498.064,438.631,485.2l14.194,14.2-12.864,12.864Z" transform="translate(-176.394 -217.258)" fill="url(#a)"/><path d="M496.791,498.142l12.877-12.86,14.19,14.2-12.878,12.86Z" transform="translate(-204.421 -217.292)" fill="url(#a)"/><path d="M567.943,498.071,580.808,485.2l14.2,14.2L582.137,512.27Z" transform="translate(-232.497 -217.261)" fill="url(#a)"/><path d="M639.008,498.077l12.873-12.86,14.19,14.207L653.2,512.284Z" transform="translate(-260.538 -217.266)" fill="url(#a)"/></svg>