<svg xmlns="http://www.w3.org/2000/svg" xmlns:xlink="http://www.w3.org/1999/xlink" width="250" height="239.686" viewBox="0 0 250 239.686">
  <defs>
    <linearGradient id="linear-gradient" x1="0.5" x2="0.5" y2="1" gradientUnits="objectBoundingBox">
      <stop offset="0" stop-color="#0cb9a2"/>
      <stop offset="1" stop-color="#0fecd2"/>
    </linearGradient>
  </defs>
  <path id="商场" d="M241.274,20.989a19.987,19.987,0,0,0-20-19.974H29.446a19.989,19.989,0,0,0-20,19.974L.36,220.727a19.988,19.988,0,0,0,20,19.974h210a19.987,19.987,0,0,0,20-19.974L241.274,20.989ZM125.32,140.772A75.223,75.223,0,0,1,50.048,65.6c0-1.785.145-3.53.264-5.286h.019a10.1,10.1,0,0,1,20.17,0h.181c-.175,1.853-.556,3.657-.556,5.56a55,55,0,0,0,110,0,25.141,25.141,0,0,0-.283-3.357,10.559,10.559,0,0,1-.158-1.211c-.042-.329-.082-.66-.115-.991h.089a10.352,10.352,0,0,1,20.7.228h0c0,.048,0,.1,0,.144.113,1.63.237,3.257.237,4.914a75.221,75.221,0,0,1-75.273,75.175Z" transform="translate(-0.36 -1.015)" fill="url(#linear-gradient)"/>
</svg>
