<svg xmlns="http://www.w3.org/2000/svg" xmlns:xlink="http://www.w3.org/1999/xlink" width="250" height="282.263" viewBox="0 0 250 282.263">
  <defs>
    <linearGradient id="linear-gradient" x1="0.5" x2="0.5" y2="1" gradientUnits="objectBoundingBox">
      <stop offset="0" stop-color="#fda085"/>
      <stop offset="1" stop-color="#f6d365"/>
    </linearGradient>
  </defs>
  <path id="金钱袋" d="M191.217,182.924H218.44a4.032,4.032,0,0,0,4.024-4.012v-3.266a4.032,4.032,0,0,0-4.024-4.012H152.628a4.032,4.032,0,0,0-4.024,4.012v3.266a4.032,4.032,0,0,0,4.024,4.012h27.226V205.5H152.628a4.032,4.032,0,0,0-4.024,4.012v3.266a4.032,4.032,0,0,0,4.024,4.012h27.226v29.823a4.043,4.043,0,0,0,4.036,4.048h3.29a4.024,4.024,0,0,0,4.036-4.048V216.8h27.226a4.032,4.032,0,0,0,4.024-4.012v-3.266a4.032,4.032,0,0,0-4.024-4.012H191.217ZM147.144,89.571c-.02-2.4-.911-5.432-3.516-9.121C135.717,69.24,110.385,39.635,118.7,31.47s29.355,11.9,37.662,3.738S166,2.276,175.637,2.276s19.275,32.932,26.17,29.194,50.928-19.787,26.835,13.145C217.093,60.4,216.286,68.982,216.286,80.321a30.484,30.484,0,0,0,.391,5.524C182.056,95.358,160,93.33,147.148,89.571Zm78.63,7.867c2.444,1.976,5.484,4.371,9.266,7.5,14.617,12.105,83.106,48.985,74.792,114.292s-61.92,65.308-74.784,65.308h-74.8c-61.711,0-99.723-14.113-99.723-73.469,0-52.807,65.763-102.107,80.284-112.349,29.4,16.823,73.417,2.871,84.969-1.282Zm-65.231,54.5,14.242,14.242a4.006,4.006,0,0,0,5.714,0l2.323-2.323a4.02,4.02,0,0,0,0-5.714L168.58,143.907a4.012,4.012,0,0,0-5.714,0l-2.327,2.323a4.02,4.02,0,0,0,0,5.714Zm42.65-8.036-14.238,14.242a4.012,4.012,0,0,0,0,5.714l2.323,2.327a4.02,4.02,0,0,0,5.714,0l14.242-14.242a4.006,4.006,0,0,0,0-5.714l-2.323-2.327a4.02,4.02,0,0,0-5.714,0Z" transform="translate(-60.53 -2.276)" fill="url(#linear-gradient)"/>
</svg>
