<svg xmlns="http://www.w3.org/2000/svg" xmlns:xlink="http://www.w3.org/1999/xlink" width="243" height="230.131" viewBox="0 0 243 230.131">
  <defs>
    <linearGradient id="linear-gradient" x1="0.5" x2="0.5" y2="1" gradientUnits="objectBoundingBox">
      <stop offset="0" stop-color="#fda085"/>
      <stop offset="1" stop-color="#f6d365"/>
    </linearGradient>
  </defs>
  <g id="阅读" transform="translate(-43.8 -72.5)">
    <path id="路径_345" data-name="路径 345" d="M175.9,292.653V85.692l17.58-11.333A9.964,9.964,0,0,1,199.26,72.5h71.508A16.61,16.61,0,0,1,286.8,89.1V269.678a16.61,16.61,0,0,1-14.973,15.592H201.583l-27.261,15.747a16.618,16.618,0,0,1-7.848,1.6,9.954,9.954,0,0,0,9.423-9.965Zm-21.194,0V85.692l-17.58-11.333A9.964,9.964,0,0,0,131.34,72.5H59.831A16.61,16.61,0,0,0,43.8,89.1V269.678A16.61,16.61,0,0,0,58.773,285.27h70.269L156.3,301.017a16.618,16.618,0,0,0,7.848,1.6,9.976,9.976,0,0,1-9.448-9.965Z" fill="url(#linear-gradient)"/>
    <path id="路径_346" data-name="路径 346" d="M251.575,278.984A10.582,10.582,0,0,0,240.991,268.4H218.247a10.584,10.584,0,0,0,0,21.169h22.743A10.615,10.615,0,0,0,251.575,278.984Zm0,47.242a10.582,10.582,0,0,0-10.584-10.584H213.084a10.584,10.584,0,0,0,0,21.169h27.906A10.615,10.615,0,0,0,251.575,326.226Zm0,47.242a10.582,10.582,0,0,0-10.584-10.584H220.829a10.584,10.584,0,1,0,0,21.169h20.162A10.6,10.6,0,0,0,251.575,373.468Z" transform="translate(-117.731 -145.328)" fill="#fff"/>
  </g>
</svg>
