<svg xmlns="http://www.w3.org/2000/svg" xmlns:xlink="http://www.w3.org/1999/xlink" width="260.201" height="228.75" viewBox="0 0 260.201 228.75">
  <defs>
    <linearGradient id="linear-gradient" x1="0.5" x2="0.5" y2="1" gradientUnits="objectBoundingBox">
      <stop offset="0" stop-color="#a49aff"/>
      <stop offset="1" stop-color="#523fff"/>
    </linearGradient>
  </defs>
  <g id="链接" transform="translate(-64 -118.2)">
    <path id="路径_341" data-name="路径 341" d="M309.107,277.747a36.5,36.5,0,0,1-17.482-31.131V193.559a36.579,36.579,0,0,1,2.9-14.259H171.659A37.28,37.28,0,0,0,134.4,216.559v65.254a37.28,37.28,0,0,0,37.259,37.259H291.653V308.849h-.029a36.517,36.517,0,0,1,17.482-31.1Z" transform="translate(-49.956 -43.356)" fill="url(#linear-gradient)"/>
    <path id="路径_342" data-name="路径 342" d="M182.891,293.545v18.905h8.451V288.667h.029v4.879h50.3V281.552H118.77a40.447,40.447,0,0,1-40.337-40.4V170.531a40.3,40.3,0,0,1,40.337-40.337H247.68A36.481,36.481,0,0,1,260.661,118.2H110.755A46.743,46.743,0,0,0,64,164.955V246.79a46.762,46.762,0,0,0,46.755,46.755Zm-49.4,38.972H97.977a4.225,4.225,0,1,0,0,8.451h35.516a4.225,4.225,0,1,0,0-8.451Zm84.972-6.04H156.174a9.9,9.9,0,0,0-9.9,9.9v.668a9.9,9.9,0,0,0,9.9,9.9h62.291a9.9,9.9,0,0,0,9.9-9.9v-.668A9.9,9.9,0,0,0,218.465,326.477Zm-52.534-14.026a4.24,4.24,0,1,0,0,8.48h20.706a2.659,2.659,0,0,0,.494.029,2.819,2.819,0,0,0,.494-.029h21.228a4.24,4.24,0,1,0,0-8.48H191.4v4.24a4.21,4.21,0,0,1-1.249,3.02,4.237,4.237,0,0,0,1.22-2.991v-4.24H182.92v-.029Zm138.493-72.572v73.065A12.078,12.078,0,0,1,292.373,325h-8.857a12.084,12.084,0,0,1-12.052-12.081V239.879a26.549,26.549,0,0,0-19.806,25.643v53.057A26.572,26.572,0,0,0,278.2,345.121h19.457A26.572,26.572,0,0,0,324.2,318.578V265.521a26.607,26.607,0,0,0-19.776-25.643ZM241.2,332.517a4.225,4.225,0,1,0,0,8.451h8.218a37.087,37.087,0,0,1-4.966-8.451Z" fill="url(#linear-gradient)"/>
    <path id="路径_343" data-name="路径 343" d="M710.1,163.443V216.5h.029a26.607,26.607,0,0,0,19.776,25.643V168.67a12.078,12.078,0,0,1,12.052-12.052h8.828a12.078,12.078,0,0,1,12.052,12.052v73.472A26.581,26.581,0,0,0,782.614,216.5V163.443A26.572,26.572,0,0,0,756.071,136.9H736.643A26.572,26.572,0,0,0,710.1,163.443Z" transform="translate(-458.471 -13.269)" fill="url(#linear-gradient)"/>
    <path id="路径_344" data-name="路径 344" d="M801,345.587v84.885c0,5.924,4.443,10.745,9.9,10.745s9.9-4.792,9.9-10.745V345.587c0-5.9-4.414-10.687-9.9-10.687C805.472,334.871,801,339.691,801,345.587Z" transform="translate(-522.973 -153.769)" fill="url(#linear-gradient)"/>
  </g>
</svg>
