<svg id="网盘-激活" xmlns="http://www.w3.org/2000/svg" xmlns:xlink="http://www.w3.org/1999/xlink" width="262.735" height="209.11" viewBox="0 0 262.735 209.11">
  <defs>
    <linearGradient id="linear-gradient" x1="0.5" x2="0.5" y2="1" gradientUnits="objectBoundingBox">
      <stop offset="0" stop-color="#4382eb"/>
      <stop offset="1" stop-color="#06bdfe"/>
    </linearGradient>
  </defs>
  <path id="路径_339" data-name="路径 339" d="M259.153,146.377v-3.921L230.491,31.366C226.908,13.069,211.383,0,197.051,0H65.684C51.353,0,35.828,13.069,31.051,30.06L2.389,141.149v3.921C1.194,151.6,0,156.832,0,163.367,0,188.2,19.108,209.11,41.8,209.11H220.937c22.691,0,41.8-20.911,41.8-45.743A39,39,0,0,0,259.153,146.377ZM115.842,44.436h4.777c3.583-7.842,10.748-11.762,19.108-11.762,10.748,0,21.5,9.149,21.5,20.911,7.166,2.614,11.943,10.455,11.943,18.3,0,11.762-9.554,20.911-21.5,20.911h-4.777c-3.583,0-5.971-2.614-5.971-6.535s2.388-6.535,5.971-6.535h4.777c4.777,0,9.554-3.921,9.554-7.842s-2.389-6.535-7.166-7.842a7.542,7.542,0,0,1-4.777-9.149V53.584c0-3.921-3.583-7.842-9.554-7.842-4.777,0-9.554,2.614-9.554,6.535-1.194,3.921-4.777,6.535-8.36,5.228a9.984,9.984,0,0,0-5.971-1.307c-8.36,0-14.331,5.228-14.331,11.762s5.971,11.762,14.331,11.762h3.583c3.583,0,5.971,2.614,5.971,6.535s-2.389,6.535-5.971,6.535h-3.583c-14.331,0-26.274-9.149-26.274-23.525s11.943-24.832,26.274-24.832Zm105.094,151.6H41.8c-16.72,0-29.856-14.376-29.856-32.673a12.734,12.734,0,0,1,1.194-6.535v-1.307c2.389-14.376,14.331-24.832,28.662-24.832H220.937c14.331,0,26.274,10.455,28.662,26.139,0,2.614,1.194,3.921,1.194,6.535C250.793,181.664,237.656,196.04,220.937,196.04Z" fill="url(#linear-gradient)"/>
  <path id="路径_340" data-name="路径 340" d="M321.684,717.069H261.971c-3.583,0-5.971,2.614-5.971,6.535s2.388,6.535,5.971,6.535h59.713c3.583,0,5.971-2.614,5.971-6.535S325.267,717.069,321.684,717.069ZM429.166,704c-9.554,0-17.914,9.149-17.914,19.6s8.36,19.6,17.914,19.6,17.914-9.149,17.914-19.6S438.72,704,429.166,704Zm0,26.139c-3.583,0-5.971-2.614-5.971-6.535s2.389-6.535,5.971-6.535,5.971,2.614,5.971,6.535S432.749,730.139,429.166,730.139Z" transform="translate(-208.23 -560.237)" fill="url(#linear-gradient)"/>
</svg>
