<?xml version="1.0" encoding="UTF-8"?>
<svg width="644px" height="336px" viewBox="0 0 644 336" version="1.1" xmlns="http://www.w3.org/2000/svg" xmlns:xlink="http://www.w3.org/1999/xlink">
    <title>编组</title>
    <defs>
        <linearGradient x1="47.7291771%" y1="20.3714564%" x2="47.7291771%" y2="94.4427716%" id="linearGradient-1">
            <stop stop-color="#BBCAFF" stop-opacity="0.48" offset="0%"></stop>
            <stop stop-color="#FFC5D6" stop-opacity="0.2" offset="100%"></stop>
        </linearGradient>
        <linearGradient x1="0%" y1="73.3302801%" x2="100%" y2="73.3302801%" id="linearGradient-2">
            <stop stop-color="#6885EF" offset="0%"></stop>
            <stop stop-color="#B2C3FF" offset="49.7238%"></stop>
            <stop stop-color="#6885EF" offset="100%"></stop>
        </linearGradient>
        <linearGradient x1="0%" y1="73.3379131%" x2="100%" y2="73.3379131%" id="linearGradient-3">
            <stop stop-color="#6885EF" offset="0%"></stop>
            <stop stop-color="#B2C3FF" offset="49.7238%"></stop>
            <stop stop-color="#6885EF" offset="100%"></stop>
        </linearGradient>
        <linearGradient x1="0%" y1="73.3394064%" x2="100%" y2="73.3394064%" id="linearGradient-4">
            <stop stop-color="#6885EF" offset="0%"></stop>
            <stop stop-color="#B2C3FF" offset="49.7238%"></stop>
            <stop stop-color="#6885EF" offset="100%"></stop>
        </linearGradient>
        <linearGradient x1="0%" y1="73.3318151%" x2="100%" y2="73.3318151%" id="linearGradient-5">
            <stop stop-color="#6885EF" offset="0%"></stop>
            <stop stop-color="#B2C3FF" offset="49.7238%"></stop>
            <stop stop-color="#6885EF" offset="100%"></stop>
        </linearGradient>
        <linearGradient x1="0%" y1="73.3373823%" x2="100%" y2="73.3373823%" id="linearGradient-6">
            <stop stop-color="#6885EF" offset="0%"></stop>
            <stop stop-color="#B2C3FF" offset="49.7238%"></stop>
            <stop stop-color="#6885EF" offset="100%"></stop>
        </linearGradient>
        <linearGradient x1="0%" y1="73.3354291%" x2="100%" y2="73.3354291%" id="linearGradient-7">
            <stop stop-color="#6885EF" offset="0%"></stop>
            <stop stop-color="#B2C3FF" offset="49.7238%"></stop>
            <stop stop-color="#6885EF" offset="100%"></stop>
        </linearGradient>
        <linearGradient x1="24.706029%" y1="9.0320409%" x2="59.7247879%" y2="102.437831%" id="linearGradient-8">
            <stop stop-color="#6885EF" offset="0%"></stop>
            <stop stop-color="#B2C3FF" offset="50.2762%"></stop>
            <stop stop-color="#6885EF" offset="100%"></stop>
        </linearGradient>
        <linearGradient x1="3.68008471%" y1="67.7195252%" x2="103.424989%" y2="47.8252034%" id="linearGradient-9">
            <stop stop-color="#6885EF" offset="0%"></stop>
            <stop stop-color="#B2C3FF" offset="50.2762%"></stop>
            <stop stop-color="#6885EF" offset="100%"></stop>
        </linearGradient>
    </defs>
    <g id="Page-1" stroke="none" stroke-width="1" fill="none" fill-rule="evenodd">
        <g id="Retail-Bank" transform="translate(-73.000000, -173.000000)">
            <g id="编组" transform="translate(73.000000, 173.000000)">
                <g id="bg" transform="translate(124.000000, 12.000000)" fill="url(#linearGradient-1)" fill-rule="nonzero">
                    <path d="M199.758,232.116 C64.773,262.349 0,251.114 0,174.623 C0,-61.295 401,-53.365 401,174.623 C401,245.069 334.744,201.883 199.758,232.116 Z" id="Shape"></path>
                </g>
                <g id="shadows" transform="translate(0.000000, 290.000000)" fill="#F3F3F3" fill-rule="nonzero">
                    <polygon id="Shape" points="279.759 0.12 227.456 0.12 299.253 42.913 643.5 42.913 589.296 23.894 322.552 23.894"></polygon>
                    <ellipse id="Oval" cx="99.5" cy="25.5" rx="99.5" ry="20.5"></ellipse>
                </g>
                <g id="plants" transform="translate(139.000000, 41.000000)">
                    <g id="plant-3" transform="translate(389.000000, 137.000000)" fill-rule="nonzero">
                        <polygon id="Shape" fill="#F9759C" points="19.939 44.361 14.909 56.995 18.446 57.916 23.435 45.996 39.342 44.035 24.274 43.891 29.263 31.971 44.7 25.675 30.142 29.15 36.339 8.685 26.646 27.514 17.324 14.776 25.767 30.335 20.778 42.255 8.429 32.215"></polygon>
                        <circle id="Oval" fill="#F9AEC5" transform="translate(6.957000, 32.849000) rotate(3.274000) translate(-6.957000, -32.849000) " cx="6.957" cy="32.849" r="6.45075"></circle>
                        <circle id="Oval" fill="#F9AEC5" transform="translate(16.690000, 13.304000) rotate(3.274000) translate(-16.690000, -13.304000) " cx="16.69" cy="13.304" r="6.45075"></circle>
                        <circle id="Oval" fill="#F9AEC5" transform="translate(37.136000, 7.294000) rotate(3.274000) translate(-37.136000, -7.294000) " cx="37.136" cy="7.294" r="6.45075"></circle>
                        <circle id="Oval" fill="#F9AEC5" transform="translate(47.521000, 26.554000) rotate(3.274000) translate(-47.521000, -26.554000) " cx="47.521" cy="26.554" r="6.45075"></circle>
                        <circle id="Oval" fill="#F9AEC5" transform="translate(42.163000, 44.914000) rotate(3.274000) translate(-42.163000, -44.914000) " cx="42.163" cy="44.914" r="6.45075"></circle>
                    </g>
                    <g id="plant-2" transform="translate(78.000000, 43.000000)" fill-rule="nonzero">
                        <path d="M81.711,140.231 C82.506,167.08 70.003,209.879 61.209,208.492 C55.229,207.549 61.404,163.838 63.693,140.181 C66.238,113.887 60.629,97.032 51.005,81.207 C32.971,51.551 31.5,19 41.404,0.377 C38.5,22 51.394,37.012 59,50.5 C66.606,63.988 80.115,86.357 81.711,140.231 Z" id="Shape" fill="#F9759C"></path>
                        <path d="M51.789,134.258 C33.403,110.112 11.447,107.776 0.297,105.583 C1.223,112.558 3.522,117.557 9.692,128.849 C15.863,140.142 27.28,149.852 41.097,151.912 C31.833,175.343 59.082,208.89 63.295,212.124 C63.743,208.027 74.772,164.441 51.789,134.258 Z" id="Shape" fill="#FCE1E9"></path>
                    </g>
                    <g id="plant-1" fill="#F9AEC5">
                        <path d="M130.938,157.868 C141.154,188.298 139.968,231.737 137.418,247.626 L142.212,253.299 C143.75,232.834 144.624,184.78 134.385,156.615 C121.225,120.416 96.688,94.078 83.244,80.361 L82.492,82.586 C93.93,93.65 119.633,124.196 130.938,157.868 Z" id="Shape" fill-rule="nonzero"></path>
                        <path d="M3.867,1.327 C13.983,9.213 33.484,27.027 41.68,36.764 C33.791,28.922 14.95,11.089 2.692,2.496 L2.739,2.28 C-1.411,6.715 -0.913,18.542 10.45,40.514 C16.067,38.268 22.165,36.563 26.342,36.571 C22.894,37.467 16.926,39.381 11.231,42.008 C13.543,46.382 16.274,51.146 19.47,56.318 C20.507,57.996 21.593,59.607 22.724,61.153 C26.907,57.512 31.49,54.293 35.069,52.972 C32.344,54.876 27.871,58.375 23.69,62.446 C28.625,68.897 34.335,74.177 40.398,78.472 C44.185,74.105 48.52,70.058 52.043,68.203 C49.532,70.5 45.425,74.693 41.746,79.408 C61.596,92.89 84.837,96.146 97.002,95.655 C96.698,94.162 96.42,92.643 96.136,91.097 C94.419,81.729 92.511,71.325 83.716,59.112 C82.733,57.746 81.702,56.382 80.632,55.024 C77.821,57.916 75.538,61.839 74.537,63.942 C74.893,61.021 77.315,56.912 79.792,53.971 C71.526,43.707 60.998,33.784 50.508,25.317 C48.152,28.046 46.275,31.311 45.393,33.164 C45.697,30.673 47.503,27.317 49.565,24.559 C47.699,23.068 45.836,21.624 43.99,20.234 C41.37,23.073 39.262,26.715 38.311,28.713 C38.639,26.027 40.713,22.335 42.971,19.471 C27.711,8.104 13.737,0.491 8.443,0.218 C6.708,0.129 5.146,0.482 3.867,1.327 Z" id="Shape"></path>
                    </g>
                </g>
                <g id="building" transform="translate(230.000000, 0.000000)" fill-rule="nonzero">
                    <polygon id="Shape" fill="#F5F5F5" points="60 36.845 60 69 92.5 40 300 40.535 300 1 92.5 1"></polygon>
                    <polygon id="Shape" fill="#6785EF" points="92.78 39.787 92.78 0.553 57.787 37.666 57.787 71.068"></polygon>
                    <path d="M51.425,290.566 L0.494,290.566 L38.625,313.364 L92.249,313.364 L92.249,40.317 L50.365,40.317 L9.54,76.37 L50.365,76.37 C50.365,76.37 50.365,220.404 51.425,290.566 Z" id="Shape" fill="#9CB0F4"></path>
                    <polygon id="Shape" fill="#7490F1" points="10.07 73.189 10.07 75.84 49.834 41.378 311.272 41.378 311.272 38.727 48.774 38.727"></polygon>
                    <polygon id="Shape" fill="#6785EF" points="71.572 301.7 71.572 101.819 92.249 92.806 92.249 313.364"></polygon>
                    <polygon id="Shape" fill="#3C56C6" points="92.249 40.317 50.365 76.37 50.365 111.892 92.249 93.336"></polygon>
                    <polygon id="Rectangle-path" fill="#DAE2FF" points="92.249 93.336 172.8375 93.336 172.8375 313.894 92.249 313.894"></polygon>
                    <polygon id="Shape" fill="#FFFFFF" points="172.332 93.653 175.303 93.653 175.303 313.869 172.332 313.869"></polygon>
                    <polygon id="Shape" fill="#DAE2FF" points="175.303 93.036 300.097 93.036 300.097 313.9 175.303 313.9"></polygon>
                    <polygon id="Shape" fill="#6785EF" points="311 41 92 41 92 93.521 311 94"></polygon>
                    <polygon id="Shape" fill="#001E87" points="311 94 300 94 300 100"></polygon>
                    <polygon id="Shape" fill-opacity="0.7" fill="#7795FF" points="358.531 253.968 358.531 313.527 300.097 313.527 300.097 253.968 300.097 248.296 318.364 248.159"></polygon>
                </g>
                <g id="coins" transform="translate(177.000000, 229.000000)" fill-rule="nonzero">
                    <path d="M13.369,50.764 L71.013,50.764 L71.013,60.371 C71.013,60.371 67.519,63.865 42.191,63.865 C16.862,63.865 13.369,60.371 13.369,60.371 L13.369,50.764 Z" id="Shape" fill="url(#linearGradient-2)"></path>
                    <ellipse id="Oval" fill="#6885EF" cx="42.191" cy="50.764" rx="28.8222" ry="4.367"></ellipse>
                    <path d="M0.055,41.156 L57.7,41.156 L57.7,50.764 C57.7,50.764 54.206,54.257 28.877,54.257 C3.549,54.257 0.055,50.764 0.055,50.764 L0.055,41.156 Z" id="Shape" fill="url(#linearGradient-3)"></path>
                    <ellipse id="Oval" fill="#6885EF" cx="28.877" cy="41.156" rx="28.8222" ry="4.367"></ellipse>
                    <path d="M354.802,14.672 L412.763,14.672 L412.763,24.333 C412.763,24.333 409.25,27.845 383.782,27.845 C358.315,27.845 354.802,24.333 354.802,24.333 L354.802,14.672 Z" id="Shape" fill="url(#linearGradient-4)"></path>
                    <ellipse id="Oval" fill="#6885EF" cx="383.782" cy="14.672" rx="28.9804" ry="4.39098"></ellipse>
                    <path d="M357.952,4.732 L415.913,4.732 L415.913,14.392 C415.913,14.392 412.401,17.905 386.933,17.905 C361.465,17.905 357.952,14.392 357.952,14.392 L357.952,4.732 Z" id="Shape" fill="url(#linearGradient-5)"></path>
                    <ellipse id="Oval" fill="#6885EF" cx="386.933" cy="4.732" rx="28.9804" ry="4.39098"></ellipse>
                    <path d="M352.821,82.021 L410.782,82.021 L410.782,91.681 C410.782,91.681 407.269,95.194 381.802,95.194 C356.334,95.194 352.821,91.681 352.821,91.681 L352.821,82.021 Z" id="Shape" fill="url(#linearGradient-5)"></path>
                    <ellipse id="Oval" fill="#6885EF" cx="381.802" cy="82.021" rx="28.9804" ry="4.39098"></ellipse>
                    <path d="M356.962,72.081 L414.923,72.081 L414.923,81.741 C414.923,81.741 411.41,85.253 385.942,85.253 C360.475,85.253 356.962,81.741 356.962,81.741 L356.962,72.081 Z" id="Shape" fill="url(#linearGradient-6)"></path>
                    <ellipse id="Oval" fill="#6885EF" cx="385.942" cy="72.081" rx="28.9804" ry="4.39098"></ellipse>
                    <path d="M356.962,62.176 L414.923,62.176 L414.923,71.836 C414.923,71.836 411.41,75.349 385.942,75.349 C360.475,75.349 356.962,71.836 356.962,71.836 L356.962,62.176 Z" id="Shape" fill="url(#linearGradient-5)"></path>
                    <ellipse id="Oval" fill="#6885EF" cx="385.942" cy="62.176" rx="28.9804" ry="4.39098"></ellipse>
                    <path d="M356.962,52.272 L414.923,52.272 L414.923,61.932 C414.923,61.932 411.41,65.445 385.942,65.445 C360.475,65.445 356.962,61.932 356.962,61.932 L356.962,52.272 Z" id="Shape" fill="url(#linearGradient-5)"></path>
                    <ellipse id="Oval" fill="#6885EF" cx="385.942" cy="52.272" rx="28.9804" ry="4.39098"></ellipse>
                    <path d="M353,42.368 L410.961,42.368 L410.961,52.028 C410.961,52.028 407.448,55.541 381.981,55.541 C356.513,55.541 353,52.028 353,52.028 L353,42.368 Z" id="Shape" fill="url(#linearGradient-5)"></path>
                    <ellipse id="Oval" fill="#6885EF" cx="381.981" cy="42.368" rx="28.9804" ry="4.39098"></ellipse>
                    <path d="M270.127,79.26 L340.112,79.26 L340.112,90.924 C340.112,90.924 335.87,95.165 305.12,95.165 C274.369,95.165 270.127,90.924 270.127,90.924 L270.127,79.26 Z" id="Shape" fill="url(#linearGradient-7)"></path>
                    <ellipse id="Oval" fill="#6885EF" cx="305.12" cy="79.26" rx="34.9924" ry="5.30187"></ellipse>
                    <path d="M174.556,26.885 C174.556,26.885 181.004,22.144 185.968,20.229 C213.07,9.768 237.918,73.951 213.545,90.6 C208.249,94.217 197.854,94.879 197.854,94.879 C192.624,95.354 179.528,92.977 170.277,73.482 C161.025,53.988 163.62,36.395 174.556,26.885 Z" id="Shape" fill="url(#linearGradient-8)"></path>
                    <ellipse id="Oval" fill="#6885EF" transform="translate(198.806000, 55.890000) rotate(-15.529300) translate(-198.806000, -55.890000) " cx="198.806" cy="55.89" rx="26.6268" ry="38.0383"></ellipse>
                    <path d="M281.048,73.541 C281.048,73.541 278.781,68.813 278.152,65.385 C274.719,46.668 319.055,38.488 326.804,56.203 C328.487,60.052 327.648,66.823 327.648,66.823 C327.317,70.247 324.192,78.387 310.518,81.968 C296.844,85.549 285.837,81.737 281.048,73.541 Z" id="Shape" fill="url(#linearGradient-9)"></path>
                    <ellipse id="Oval" fill="#6885EF" transform="translate(302.668000, 61.464000) rotate(-94.817800) translate(-302.668000, -61.464000) " cx="302.668" cy="61.464" rx="17.442" ry="24.9172"></ellipse>
                </g>
                <g id="character" transform="translate(58.000000, 89.000000)" fill-rule="nonzero">
                    <path d="M12.329,226.199 L16.927,213.363 L25.005,211.632 C22.312,216.633 16.927,226.864 16.927,227.787 C16.927,228.71 13.291,228.699 12.329,226.199 Z" id="Shape" fill="#FCD8E3"></path>
                    <polygon id="Shape" fill="#FCD8E3" points="54.352 204.613 61.566 194.106 68.108 197.774 57.814 207.877"></polygon>
                    <path d="M23.334,214.517 L15.773,214.517 C18.565,199.219 26.242,179.569 29.731,171.656 C29.731,164.403 28.034,142.744 28.034,130.084 C28.034,117.424 33.874,106.368 36.201,103.071 L64.375,105.073 C64.375,105.073 87.419,162.405 86.837,168.999 C86.255,175.593 65.207,202.298 65.207,202.298 L58.809,195.704 L74.624,167.68 C74.624,167.68 55.514,152.914 49.617,141.296 C51.368,153.061 41.362,176.932 41.362,176.932 L23.334,214.517 Z" id="Shape" fill="#3C56C6"></path>
                    <path d="M16.927,241.058 C14.619,240.596 8.465,235.672 7.119,232.403 L13.465,223.172 C12.081,225.941 15.196,227.018 16.927,227.21 C16.927,227.21 16.927,232.403 25.582,234.711 C28.978,235.617 28.851,239.711 28.467,241.058 C24.428,241.25 19.235,241.519 16.927,241.058 Z" id="Shape" fill="#FFFFFF"></path>
                    <path d="M54.688,203.236 L49.578,206.629 L47.062,208.04 C47.062,208.04 48.74,224.387 49.578,226.827 C50.417,229.267 54.154,227.437 54.459,225.15 C54.821,222.433 54.764,220.126 55.869,216.199 C56.975,212.272 58.284,209.73 59.301,207.925 L54.688,203.236 Z" id="Shape" fill="#FFFFFF"></path>
                    <path d="M52.699,34.503 C52.238,37.272 49.045,39.888 47.506,40.849 C47.506,42.696 54.815,43.927 58.469,44.311 L59.623,34.503 L52.699,34.503 Z" id="Shape" fill="#FCD8E3"></path>
                    <path d="M50.391,25.848 C51.776,28.618 52.507,33.156 52.699,35.08 L58.469,35.08 L65.97,35.08 C66.547,34.503 68.277,32.195 70.585,27.579 C73.47,21.809 70.585,8.539 69.431,6.808 C68.277,5.077 61.931,-0.115 55.584,5.077 C49.237,10.27 48.661,22.386 50.391,25.848 Z" id="Shape" fill="#FCD8E3"></path>
                    <path d="M67.7,15.463 C69.431,12.578 71.855,5.77 67.7,1.616 C58.469,-0.115 55.057,0.268 49.814,5.077 C44.772,9.702 44.045,15.463 44.622,21.809 C45.199,28.156 50.968,29.31 52.122,30.464 C53.276,31.618 61.354,25.848 61.354,21.809 C61.354,18.578 65.585,16.232 67.7,15.463 Z" id="Shape" fill="#FC97B5"></path>
                    <path d="M39.743,14.917 C42.255,12.834 44.931,15.208 45.955,16.656 C46.525,18.834 47.642,23.419 47.556,24.338 C47.449,25.487 47.128,28.934 44.669,30.443 C42.21,31.952 40.127,29.44 38.618,26.981 C37.109,24.523 36.603,17.522 39.743,14.917 Z" id="Shape" fill="#FC97B5"></path>
                    <path d="M73.885,20.438 C78.942,14.391 78.164,-0.959 67.703,1.894 C61.998,8.075 64.099,10.447 63.482,13.211 C62.714,16.651 61.98,18.296 60.417,21.802 L60.396,21.85 C58.557,25.973 63.482,37.555 67.014,40.883 C65.326,35.178 66.169,29.663 73.885,20.438 Z" id="Shape" fill="#FC97B5"></path>
                    <polygon id="Shape" fill="#FCD8E3" points="105.203 108.355 97.703 103.162 97.703 95.661 108.088 103.162"></polygon>
                    <polygon id="Shape" fill="#FCD8E3" points="6.903 111.826 10.218 98.977 16.958 95.949 9.967 113.809"></polygon>
                    <path d="M39.429,90.469 C37.698,99.302 37.255,98.444 35.371,103.899 C36.333,104.992 32.509,114.583 42.028,114.583 C55.816,114.583 60.721,107.079 64.375,105.549 C64.375,102.269 65.97,82.254 67.123,74.384 C68.047,68.087 67.508,64.584 67.123,63.928 C68.854,66.333 72.778,77.401 74.624,81.598 C76.47,85.796 90.779,98.214 97.703,103.899 L101.742,97.969 C101.165,97.392 83.856,77.007 82.702,74.384 C81.548,71.76 74.624,46.042 68.277,43.157 C61.931,40.272 44.045,40.614 39.429,42.582 C35.736,44.156 24.812,59.92 19.235,69.977 L9.427,102.587 L14.619,103.899 C16.158,99.745 26.851,80.471 27.313,77.847 C27.89,74.568 37.698,64.074 37.698,65.386 C37.698,71.944 41.16,81.635 39.429,90.469 Z" id="Shape" fill="#6386FF"></path>
                    <path d="M113.858,114.124 C110.627,114.586 106.742,110.47 105.203,108.355 C104.626,106.432 104.28,102.7 107.511,103.162 C111.55,103.739 116.743,106.047 118.474,108.355 C120.205,110.663 117.897,113.547 113.858,114.124 Z" id="Shape" fill="#FCD8E3"></path>
                    <path d="M0.956,121.018 C1.879,117.442 5.029,112.932 6.488,111.124 L10.958,112.277 L8.652,121.215 C7.931,124.009 4.399,128.46 2.453,126.767 C0.506,125.073 -0.197,125.487 0.956,121.018 Z" id="Shape" fill="#FCD8E3"></path>
                    <path d="M51.545,63.351 C51.545,63.351 50.968,49.504 61.354,41.426 C60.777,41.426 58.674,41.192 57.892,41.426 C52.122,43.157 47.507,57.005 48.66,63.351 L51.545,63.351 Z" id="Shape" fill="#F9759C"></path>
                    <path d="M40.006,57.582 C40.006,57.582 43.66,45.465 45.776,41.426 C45.199,41.426 42.314,41.426 41.737,42.003 C41.084,42.656 36.544,54.697 36.544,57.582 L40.006,57.582 Z" id="Shape" fill="#F9759C"></path>
                    <path d="M50.968,81.814 C50.968,75.352 51.773,63.107 52.157,57.145 L34.33,57.145 C32.407,62.146 27.89,72.006 27.89,74.314 C27.89,77.198 30.184,92.78 30.761,94.511 C31.061,95.41 38.39,95.387 43.454,95.088 C46.187,94.927 48.647,92.203 48.647,92.203 C48.647,92.203 50.968,88.276 50.968,81.814 Z" id="Shape" fill="#F9759C"></path>
                    <path d="M26.159,76.926 C26.159,66.54 29.079,60.03 33.117,57.145 L52.157,57.145 C44.311,57.145 42.314,70.002 42.314,76.926 L26.159,76.926 Z" id="Shape" fill="#F9AEC5"></path>
                </g>
            </g>
        </g>
    </g>
</svg>