<svg xmlns="http://www.w3.org/2000/svg" xmlns:xlink="http://www.w3.org/1999/xlink" width="121" height="121" viewBox="0 0 121 121">
  <defs>
    <linearGradient id="linear-gradient" x1="0.5" x2="0.5" y2="1" gradientUnits="objectBoundingBox">
      <stop offset="0" stop-color="#a49aff"/>
      <stop offset="1" stop-color="#523fff"/>
    </linearGradient>
  </defs>
  <path id="应用管理" d="M321.875,313h-26.62a14.978,14.978,0,0,1-15.125-15.125V256.13h41.745A14.978,14.978,0,0,1,337,271.255v26.62A14.978,14.978,0,0,1,321.875,313Zm0-64.735H280.13v-41.14A14.978,14.978,0,0,1,295.255,192h26.62A14.978,14.978,0,0,1,337,207.125V233.14A14.978,14.978,0,0,1,321.875,248.265ZM257.14,313H231.125A14.978,14.978,0,0,1,216,297.875v-26.62a14.978,14.978,0,0,1,15.125-15.125h41.14v41.745A14.978,14.978,0,0,1,257.14,313ZM216,233.14V207.125A14.978,14.978,0,0,1,231.125,192H257.14a14.978,14.978,0,0,1,15.125,15.125v41.14h-41.14A14.978,14.978,0,0,1,216,233.14Z" transform="translate(-216 -192)" fill="url(#linear-gradient)"/>
</svg>
