<svg xmlns="http://www.w3.org/2000/svg" xmlns:xlink="http://www.w3.org/1999/xlink" width="121" height="121" viewBox="0 0 121 121">
  <defs>
    <linearGradient id="linear-gradient" x1="0.5" x2="0.5" y2="1" gradientUnits="objectBoundingBox">
      <stop offset="0" stop-color="#fda085"/>
      <stop offset="1" stop-color="#f6d365"/>
    </linearGradient>
  </defs>
  <path id="比赛" d="M265.267,183.637c3.85,0,7.15,3.3,7.7,7.15v9.9c10.45,2.75,18.7,12.1,18.7,23.65a24.455,24.455,0,0,1-22,24.2c-6.05,13.75-18.15,23.65-33,25.3v19.8h14.85a5.5,5.5,0,0,1,0,11h-40.15a5.5,5.5,0,0,1,0-11h14.85v-20.35a42.038,42.038,0,0,1-31.35-23.65l-.55-1.1c-13.2,0-23.65-11-23.65-24.2a25.268,25.268,0,0,1,19.25-24.2h1.1v-8.8a7.411,7.411,0,0,1,7.15-7.7h67.1Zm-30.8,22.55c-1.65-3.3-4.4-3.85-5.5-.55v.55l-4.95,9.9-10.45,1.65c-3.3.55-4.4,3.3-2.2,5.5l.55.55,7.7,8.25-1.65,11.55c-.55,3.85,1.1,5.5,4.4,3.85h.55l9.35-5.5,9.35,5.5q4.95,2.475,4.95-3.3v-.55l-1.65-11.55,7.7-8.25c2.75-2.75,1.65-4.95-1.65-6.05h-.55l-11.55-1.1-4.4-10.45Zm-44,4.95c-5.5,1.65-9.35,6.6-9.35,13.2a13.535,13.535,0,0,0,9.9,13.2,6.976,6.976,0,0,0-.55-3.3Zm82.5,1.1v25.3a13.9,13.9,0,0,0,8.25-12.65,13.059,13.059,0,0,0-7.15-12.1Z" transform="translate(-170.667 -183.637)" fill="url(#linear-gradient)"/>
</svg>
