<svg xmlns="http://www.w3.org/2000/svg" xmlns:xlink="http://www.w3.org/1999/xlink" width="120.178" height="121.051" viewBox="0 0 120.178 121.051">
  <defs>
    <linearGradient id="linear-gradient" x1="0.5" x2="0.5" y2="1" gradientUnits="objectBoundingBox">
      <stop offset="0" stop-color="#0cb9a2"/>
      <stop offset="1" stop-color="#0fecd2"/>
    </linearGradient>
  </defs>
  <path id="作品" d="M266.868,245.417l6.036,6.036-9.878,9.878a2.652,2.652,0,0,0,0,3.841l.549.549h.549a4.687,4.687,0,0,0,3.841,0h.549l9.878-9.878,6.036,6.036L272.9,271.209a2.652,2.652,0,0,0,0,3.841c1.1,1.1,2.744,1.646,3.841,1.1h.549l9.878-9.878,5.488,5.488a3.338,3.338,0,0,1,0,4.39v.549L265.77,303.585a3.338,3.338,0,0,1-4.39,0h-.549L235.04,277.794l31.828-32.377Zm-72.436,11.524L250.4,200.967,276.2,226.759l-55.973,56.522-36.767,15.365a2.492,2.492,0,0,1-2.744,0c-1.646-.549-2.2-2.2-2.2-3.841v-.549Zm10.975-72.985,6.036,6.036-9.878,9.878c-1.1,1.1-.549,2.744,0,3.841a2.351,2.351,0,0,0,3.841.549h.549l9.878-9.878,6.036,6.036-9.878,9.878v.549a3.321,3.321,0,0,0,.549,4.39c1.1,1.1,3.293.549,4.39-.549v-.549l9.878-9.878,6.036,6.036-31.828,31.828-26.889-25.792a3.338,3.338,0,0,1,0-4.39v-.549L201.017,184.5A3.321,3.321,0,0,1,205.407,183.956Zm54.327,7.683a18.242,18.242,0,0,1,25.792,1.646c6.585,7.683,6.036,18.658-1.1,25.243l-.549.549-25.792-25.792Z" transform="translate(-173.304 -183.358)" fill="url(#linear-gradient)"/>
</svg>
